<svg width="80" height="26" viewBox="0 0 80 26" fill="none" xmlns="http://www.w3.org/2000/svg">
<path d="M11.7883 19.0309C11.7883 18.0317 11.7991 15.3606 11.7745 15.0316C11.796 11.057 8.90616 8.25334 7.08051 8.4719C5.81723 8.58154 4.7585 9.09665 4.19003 10.5785C3.66315 11.9596 4.1342 13.7965 5.88594 14.2276C7.75906 14.6905 8.85282 15.0756 9.64438 15.619C10.6143 16.2842 11.4061 17.5552 11.4271 19.0325" fill="#0060AF"/>
<path d="M12.5354 25.0722C9.23268 25.0722 5.83838 24.2588 2.44859 22.6499L2.36541 22.609L2.32563 22.5242C0.804445 19.3132 0 15.8011 0 12.365C0 8.9341 0.771444 5.57233 2.29376 2.36564L2.33558 2.28042L2.42034 2.23793C5.55606 0.752457 8.92935 0 12.4496 0C15.7288 0 19.2309 0.83767 22.5757 2.42667L22.6616 2.46487L22.7012 2.55166C24.2515 5.82187 25.0691 9.33304 25.0691 12.7122C25.0691 16.0783 24.2841 19.443 22.7319 22.7111L22.691 22.797L22.6047 22.8368C19.5169 24.2985 16.0346 25.0722 12.5354 25.0722V25.0722ZM2.76232 22.2096C6.05537 23.7586 9.33959 24.5409 12.5354 24.5409C15.9241 24.5409 19.2942 23.8001 22.2941 22.396C23.7843 19.2291 24.5397 15.9698 24.5397 12.7122C24.5397 9.44153 23.7513 6.03932 22.26 2.86539C19.0139 1.33946 15.6239 0.530268 12.4496 0.530268C9.04146 0.530268 5.77486 1.25311 2.73384 2.67914C1.27414 5.78729 0.531174 9.04417 0.531174 12.365C0.531174 15.6922 1.30329 19.0958 2.76232 22.2096Z" fill="#0060AF"/>
<path d="M11.005 19.0323C11.0111 17.7514 10.2962 16.6187 9.36175 16.01C8.5329 15.4721 7.42015 15.1186 5.62501 14.6633C5.0701 14.5214 4.48966 14.2061 4.30996 13.8042C3.83462 14.2832 3.74827 15.36 3.83191 15.9892C3.9291 16.7175 4.78011 17.9177 6.06147 17.9648C6.84399 17.9962 7.83333 17.7963 8.30777 17.6956C9.12623 17.5188 10.4212 18.0314 10.6273 19.0307" fill="#0060AF"/>
<path d="M12.4498 2.27734C10.2772 2.27734 8.40046 3.71015 8.40724 6.18948C8.41403 8.2744 10.0907 9.39054 10.689 10.1878C11.5931 11.3891 12.0825 12.8111 12.1334 14.9868C12.1729 16.7185 12.1709 18.4284 12.1797 19.0344H12.6593C12.651 18.4003 12.6293 16.5851 12.6541 14.9333C12.6867 12.7568 13.1937 11.3891 14.0982 10.1878C14.7017 9.39054 16.3771 8.2744 16.3807 6.18948C16.3888 3.71015 14.5132 2.27734 12.3424 2.27734" fill="#0060AF"/>
<path d="M13.0007 19.0309C13.0007 18.0317 12.9894 15.3606 13.0136 15.0316C12.9923 11.057 15.8803 8.25334 17.7076 8.4719C18.9708 8.58154 20.0284 9.09665 20.5985 10.5785C21.1249 11.9596 20.6512 13.7965 18.9015 14.2276C17.0274 14.6905 15.935 15.0756 15.1414 15.619C14.1727 16.2842 13.4362 17.5552 13.4136 19.0325" fill="#0060AF"/>
<path d="M13.7833 19.0323C13.7765 17.7514 14.4912 16.6187 15.4229 16.01C16.2551 15.4721 17.3692 15.1186 19.1628 14.6633C19.7188 14.5214 20.2986 14.2061 20.4751 13.8042C20.9527 14.2832 21.0388 15.36 20.9552 15.9892C20.856 16.7175 20.0072 17.9177 18.7281 17.9648C17.9458 17.9962 16.9513 17.7963 16.4789 17.6956C15.6636 17.5188 14.3651 18.0314 14.158 19.0307" fill="#0060AF"/>
<path d="M14.4538 23.1678L14.1758 21.1391L14.8469 21.0374C15.0103 21.0151 15.2092 21.0435 15.2888 21.1459C15.3767 21.2528 15.4036 21.3412 15.4205 21.4813C15.4458 21.6547 15.3957 21.8552 15.2004 21.9551V21.9612C15.4185 21.9612 15.5503 22.1178 15.5885 22.3823C15.5941 22.4381 15.6106 22.5731 15.5941 22.6856C15.5498 22.9535 15.39 23.0396 15.1204 23.0773L14.4538 23.1678ZM14.8857 22.8045C14.9653 22.7932 15.046 22.7889 15.1091 22.7487C15.2056 22.6856 15.1968 22.5507 15.1834 22.4506C15.1497 22.2304 15.0923 22.1468 14.8588 22.1814L14.7122 22.204L14.8051 22.8158L14.8857 22.8045ZM14.7452 21.8672C14.834 21.8528 14.9545 21.8421 15.0046 21.7578C15.0309 21.7015 15.0645 21.6567 15.0424 21.5315C15.015 21.383 14.9658 21.291 14.7772 21.3267L14.6016 21.355L14.6708 21.8749" fill="#0060AF"/>
<path d="M17.3608 21.9476C17.366 21.9854 17.3721 22.0274 17.3743 22.0652C17.4286 22.4352 17.3608 22.7415 16.9449 22.8258C16.3301 22.9442 16.2123 22.5622 16.1041 22.0274L16.0464 21.7381C15.9617 21.2264 15.9253 20.839 16.5247 20.7196C16.8626 20.6579 17.0859 20.7924 17.1788 21.1287C17.1933 21.1789 17.2114 21.2286 17.2182 21.279L16.8504 21.355C16.8079 21.2286 16.7516 21.0028 16.5862 21.0218C16.2892 21.0575 16.3873 21.4271 16.4178 21.5815L16.5283 22.1368C16.5615 22.3048 16.6275 22.5731 16.8845 22.5213C17.0932 22.4795 17.0023 22.1545 16.9838 22.0213" fill="#0060AF"/>
<path d="M17.9505 22.5612L17.8232 20.4618L18.3173 20.311L19.3532 22.1369L18.9642 22.2533L18.7188 21.7893L18.2868 21.919L18.3427 22.4466L17.9505 22.5612ZM18.2507 21.58L18.5628 21.4896L18.1483 20.6401" fill="#0060AF"/>
<path d="M5.74674 20.9742C5.90135 20.4792 6.0399 20.1149 6.62984 20.2767C6.94561 20.3649 7.14135 20.5041 7.13208 20.8709C7.13056 20.9525 7.1036 21.0357 7.08597 21.1164L6.71867 21.0149C6.76682 20.8124 6.79733 20.6517 6.54779 20.5748C6.25938 20.4957 6.18908 20.8454 6.1493 20.9964L5.9999 21.5468C5.95243 21.7102 5.89547 21.9803 6.1493 22.0499C6.35906 22.1064 6.48631 21.9005 6.56226 21.5999L6.30526 21.5319L6.39409 21.2134L6.99827 21.4078L6.71144 22.4685L6.43342 22.393L6.49603 22.1688H6.48812C6.36018 22.3521 6.204 22.3713 6.06725 22.3451C5.46307 22.1817 5.52613 21.7868 5.67034 21.2593" fill="#0060AF"/>
<path d="M7.99582 21.8701L7.81386 22.7331L7.4043 22.6445L7.84076 20.6294L8.53897 20.7872C8.94763 20.8753 9.07105 21.0573 9.01318 21.4318C8.98018 21.6468 8.87418 21.8784 8.61537 21.8597L8.61266 21.8562C8.83146 21.9328 8.84999 22.0431 8.81179 22.2339C8.7953 22.315 8.6816 22.8075 8.76003 22.8871L8.76274 22.9474L8.33893 22.8369C8.3213 22.7004 8.3812 22.4549 8.40493 22.3191C8.42889 22.1988 8.46709 22.0293 8.34503 21.9656C8.24942 21.9147 8.21394 21.9172 8.1059 21.8923L7.99582 21.8701ZM8.06566 21.5579L8.34142 21.6323C8.50891 21.6565 8.60203 21.5697 8.63503 21.3674C8.66487 21.1818 8.62622 21.1093 8.47591 21.0733L8.18026 21.0134" fill="#0060AF"/>
<path d="M10.6227 21.0798L11.0278 21.1268L10.8533 22.5434C10.7685 22.9925 10.5949 23.1889 10.1008 23.1274C9.59815 23.0639 9.47881 22.8349 9.50932 22.3822L9.68495 20.9668L10.0932 21.0136L9.91799 22.3973C9.89945 22.5477 9.86464 22.7703 10.132 22.7972C10.3691 22.8153 10.4229 22.6582 10.4496 22.4629" fill="#0060AF"/>
<path d="M11.4746 23.2049L11.5964 21.1792L12.3747 21.2129C12.7424 21.231 12.8387 21.5314 12.8272 21.818C12.8165 21.9922 12.7621 22.1868 12.6102 22.2924C12.4856 22.3821 12.3256 22.4034 12.1771 22.3962L11.9235 22.3821L11.8729 23.2311L11.4746 23.2049ZM11.935 22.0732L12.1412 22.0847C12.3087 22.0908 12.4196 22.0246 12.4341 21.7786C12.4422 21.5424 12.353 21.5024 12.136 21.4929L11.9726 21.4873" fill="#0060AF"/>
<path d="M66.3615 4.23523L63.2685 9.84915C62.1011 8.90117 60.6755 8.20342 58.8566 8.20342C54.5523 8.20342 52.804 11.4119 52.804 13.672C52.804 15.3496 53.9025 17.8249 57.7324 17.8249C59.3399 17.8249 61.6253 16.7065 62.283 16.1977L59.2239 22.7108C57.7658 23.0017 57.2869 23.182 56.0525 23.2202C49.1977 23.4248 46.4277 19.2138 46.4297 14.9109C46.4342 9.22259 51.4916 2.3047 59.8756 2.3047C60.3894 2.3047 61.0177 2.48236 61.555 2.67923L62.0979 1.98486" fill="#0060AF"/>
<path d="M79.1239 2.16113L79.9998 22.5654H73.4815L73.4776 19.066H69.033L67.5701 22.5654H60.501L67.8915 7.995L66.225 7.98415L69.3914 2.16113H79.1239ZM73.4354 8.40321L70.9224 14.3381H73.5111" fill="#0060AF"/>
<path d="M42.3151 2.16087C45.5431 2.17895 47.3671 3.93114 47.3671 6.46224C47.3671 8.79556 45.4434 10.861 43.3316 11.929C45.5058 12.7283 45.6938 14.6902 45.6938 16.0783C45.6938 19.4317 42.3289 22.5651 37.955 22.5651H28.416L32.1369 8.1977L30.6085 8.18888L33.7329 2.16087C33.7329 2.16087 39.6902 2.14279 42.3151 2.16087V2.16087ZM39.1482 10.4336C39.8159 10.4336 40.9949 10.2645 41.2896 8.9723C41.6126 7.56957 40.5062 7.53181 39.9755 7.53181L38.0791 7.52351L37.4177 10.4337L39.1482 10.4336ZM36.467 14.0392L35.5939 17.3926H37.8268C38.7054 17.3926 39.9027 16.9566 40.1961 15.8653C40.4858 14.7709 39.6488 14.0392 38.7734 14.0392" fill="#0060AF"/>
</svg>
